<svg width="52" height="53" viewBox="0 0 52 53" fill="none" xmlns="http://www.w3.org/2000/svg">
<path d="M11.0942 39.101L15.1579 28.9514C15.8056 27.3345 16.775 25.8658 18.0076 24.6342L40.29 2.37915C41.571 1.09935 43.3084 0.380371 45.12 0.380371C46.9316 0.380371 48.669 1.09935 49.95 2.37915C51.231 3.65894 51.9506 5.39472 51.9506 7.20462C51.9506 9.01452 51.231 10.7503 49.95 12.0301L27.6676 34.2852C26.4343 35.5173 24.9628 36.4888 23.3431 37.1354L13.1872 41.1952C12.8947 41.3122 12.5741 41.3409 12.2654 41.2776C11.9567 41.2144 11.6733 41.062 11.4505 40.8393C11.2277 40.6167 11.0751 40.3336 11.0118 40.0252C10.9485 39.7167 10.9771 39.3965 11.0942 39.1042V39.101Z" fill="#D8AB67"/>
<path d="M4.86998 12.8281C4.86998 10.6084 6.67318 8.80692 8.89498 8.80692H25.8C26.4405 8.80692 27.0547 8.55272 27.5076 8.10024C27.9605 7.64777 28.215 7.03408 28.215 6.39418C28.215 5.75428 27.9605 5.14059 27.5076 4.68812C27.0547 4.23564 26.4405 3.98145 25.8 3.98145H8.89498C6.54649 3.98145 4.29418 4.91351 2.63355 6.57258C0.972913 8.23166 0.039978 10.4819 0.039978 12.8281V43.3895C0.039978 45.7358 0.972913 47.9859 2.63355 49.645C4.29418 51.3041 6.54649 52.2362 8.89498 52.2362H39.485C41.8335 52.2362 44.0858 51.3041 45.7464 49.645C47.407 47.9859 48.34 45.7358 48.34 43.3895V26.5003C48.34 25.8604 48.0855 25.2467 47.6326 24.7943C47.1797 24.3418 46.5655 24.0876 45.925 24.0876C45.2845 24.0876 44.6702 24.3418 44.2173 24.7943C43.7644 25.2467 43.51 25.8604 43.51 26.5003V43.3895C43.51 45.6092 41.7068 47.4107 39.485 47.4107H8.89498C6.67318 47.4107 4.86998 45.6092 4.86998 43.3895V12.8281Z" fill="#D8AB67"/>
</svg>
